<svg width="159" height="246" viewBox="0 0 159 246" fill="none" xmlns="http://www.w3.org/2000/svg">
<path d="M28.5483 37.7917C27.6235 36.8132 26.9006 35.662 26.4207 34.4041C25.9409 33.1461 25.7135 31.8059 25.7515 30.4601C25.7896 29.1142 26.0924 27.7891 26.6426 26.5602C27.1928 25.3314 27.9797 24.223 28.9582 23.2982C29.9368 22.3735 31.088 21.6506 32.3459 21.1707C33.6039 20.6909 34.9441 20.4635 36.2899 20.5015C37.6358 20.5396 38.9609 20.8424 40.1898 21.3926C41.4186 21.9428 42.527 22.7297 43.4518 23.7082L130.577 115.958C132.376 117.861 133.379 120.381 133.379 123C133.379 125.619 132.376 128.139 130.577 130.042L43.4518 222.302C42.5331 223.302 41.4249 224.11 40.1916 224.678C38.9582 225.246 37.6243 225.563 36.2673 225.611C34.9102 225.66 33.5571 225.438 32.2866 224.958C31.016 224.479 29.8533 223.753 28.866 222.82C27.8787 221.888 27.0865 220.769 26.5354 219.528C25.9843 218.287 25.6853 216.949 25.6558 215.591C25.6262 214.233 25.8667 212.883 26.3632 211.62C26.8598 210.356 27.6025 209.203 28.5483 208.229L109.031 123L28.5483 37.7917Z" fill="black"/>
</svg>
