<svg width="28" height="25" viewBox="0 0 28 25" fill="none" xmlns="http://www.w3.org/2000/svg">
<path d="M0 19.2726L2.36505 23.4192C2.60021 23.894 2.96074 24.2932 3.40646 24.5723C3.85217 24.8515 4.36555 24.9995 4.88935 25H20.589L17.3306 19.2726H0ZM27.9991 19.3001C27.9979 18.7492 27.8413 18.2102 27.5476 17.7468L18.3464 1.52572C18.1065 1.06492 17.7472 0.679286 17.3071 0.410416C16.8671 0.141547 16.363 -0.000359675 15.8493 6.8462e-07H10.987L25.1966 24.9716L27.4391 21.0379C27.8766 20.2844 28 19.9515 28 19.3001H27.9991ZM15.0154 15.2049L8.66748 4.04995L2.31518 15.2049H15.0154Z" fill="#F1FFFA"/>
</svg>
