<svg width="296" height="290" viewBox="0 0 296 290" fill="none" xmlns="http://www.w3.org/2000/svg">
<path d="M243.583 0.699951H52.4167C23.4333 0.699951 0 24.1333 0 53.1166V236.883C0 265.867 23.4333 289.3 52.4167 289.3H243.583C272.567 289.3 296 265.867 296 236.883V53.1166C296 24.1333 272.567 0.699951 243.583 0.699951ZM154.167 204.2H128.39C127.527 204.336 126.663 203.707 126.417 202.843L116.303 173.367H70.4233L61.05 202.473C60.8033 203.583 59.8167 204.323 58.7067 204.2H35.52C34.1633 204.2 33.7933 203.46 34.1633 201.98L73.8767 88.0199C74.2467 86.7866 74.6167 85.4299 75.11 83.9499C75.7267 81.3599 76.0967 78.7699 76.0967 76.0566C75.9733 75.4399 76.4667 74.8233 77.0833 74.6999H109.027C109.89 74.6999 110.507 75.0699 110.63 75.6866L155.4 202.239C155.77 203.583 155.4 204.2 154.167 204.2ZM249.75 204.336H228.524C228.043 204.379 227.56 204.272 227.143 204.029C226.725 203.786 226.393 203.419 226.193 202.979C225.947 201.992 225.7 200.87 225.441 199.896C225.194 199.032 225.194 198.169 225.194 197.306C221.248 200.87 216.438 203.472 211.258 204.94C206.818 206.186 202.143 206.79 197.568 206.79C193.017 206.79 188.441 206.173 184.124 204.693C180.125 203.33 176.523 201 173.641 197.91C170.434 194.457 168.091 190.387 166.722 185.947C164.986 180.275 164.157 174.364 164.268 168.433V107.26C164.236 107.073 164.244 106.881 164.29 106.697C164.336 106.513 164.419 106.34 164.535 106.19C164.651 106.039 164.796 105.914 164.963 105.823C165.129 105.731 165.312 105.674 165.501 105.657H189.415C190.168 105.533 190.908 106.027 191.031 106.89V165.239C191.031 170.653 192.264 174.97 194.595 178.053C196.951 181.137 201.749 182.752 207.311 182.752C210.135 182.752 212.972 182.247 215.698 181.26C218.534 180.273 221.112 178.929 223.468 177.19V107.013C223.468 106.15 224.084 105.657 225.194 105.657H248.751C249.38 105.533 250.095 106.027 250.095 106.643V182.617C250.095 185.959 250.095 188.919 250.231 191.497C250.354 194.099 250.49 196.319 250.601 198.292C250.848 200.266 250.959 201.376 251.082 202.72C251.23 203.83 250.737 204.336 249.75 204.336ZM102.737 129.337C101.503 125.513 100.393 121.813 99.16 117.99C97.9267 114.167 96.8167 110.59 95.83 107.013C94.8433 103.56 93.98 100.353 93.1167 97.3933H92.87C91.76 102.697 90.4033 108 88.6767 113.303C86.8267 119.223 84.9767 125.39 83.0033 131.557C81.4 137.847 79.4267 143.643 77.5767 148.823H108.903C108.163 146.233 107.177 143.15 106.067 139.943C104.957 136.613 103.847 133.037 102.737 129.337Z" fill="black"/>
</svg>
