<svg width="210" height="175" viewBox="0 0 210 175" fill="none" xmlns="http://www.w3.org/2000/svg">
<path d="M108.952 99.987C109.338 93.0612 112.737 86.9661 117.878 82.6363C123.276 78.1657 130.086 75.7384 137.106 75.7832C144.51 75.7832 151.287 78.3791 156.345 82.6363C161.475 86.9661 164.885 93.0716 165.27 99.987C165.667 107.11 162.799 113.724 157.752 118.625C152.197 123.903 144.794 126.816 137.117 126.745C129.432 126.82 122.021 123.907 116.46 118.625C111.424 113.724 108.546 107.11 108.952 99.987Z" fill="#220927"/>
<path d="M64.0838 114.005C64.1359 116.704 65.0118 121.969 66.3048 126.091C69.122 134.956 73.8478 143.103 80.1523 149.963C86.9104 157.369 95.1653 163.268 104.375 167.272C114.392 171.672 125.23 173.919 136.178 173.865C147.137 173.879 157.976 171.597 167.992 167.168C177.19 163.115 185.433 157.191 192.194 149.776C198.485 142.894 203.203 134.736 206.021 125.863C207.396 121.528 208.27 117.052 208.627 112.52C209.61 99.4161 206.366 86.3419 199.368 75.2018C195.097 68.4005 189.641 62.4123 183.258 57.5189L183.268 57.5085L118.108 7.67843L117.941 7.53306C113.655 4.27266 106.46 4.28305 101.768 7.55383C97.0029 10.8661 96.4711 16.3382 100.684 19.8063L100.673 19.8167L127.847 41.8399L45.0226 41.9334H44.8975C38.0572 41.9334 31.4776 46.419 30.1741 52.0676C28.8394 57.8304 33.49 62.6068 40.6119 62.6275L40.6015 62.6587L82.5923 62.5756L7.64068 119.851L7.35914 120.069C0.299841 125.458 -1.98374 134.419 2.4583 140.098C6.98376 145.871 16.5769 145.871 23.73 140.119L64.626 106.799C64.6364 106.799 64.0421 111.295 64.0838 114.005V114.005ZM169.17 129.061C160.745 137.617 148.962 142.466 136.189 142.486C123.405 142.507 111.622 137.7 103.186 129.165C99.1984 125.189 96.1246 120.4 94.1771 115.126C92.3375 110.111 91.629 104.755 92.102 99.4368C92.5608 94.1931 94.1145 89.1883 96.6275 84.6715C99.0883 80.217 102.488 76.209 106.659 72.7929C115.025 66.0939 125.454 62.4708 136.189 62.5341C146.914 62.4482 157.341 66.0414 165.719 72.7098C169.879 76.0948 173.279 80.0924 175.74 84.5365C178.242 89.0637 179.806 94.0478 180.265 99.2914C180.736 104.609 180.031 109.964 178.2 114.981C176.233 120.262 173.154 125.062 169.17 129.061V129.061Z" fill="#220927"/>
</svg>
