<svg width="291" height="323" viewBox="0 0 291 323" fill="none" xmlns="http://www.w3.org/2000/svg">
<path d="M274.5 322.75H48.75C35.9202 322.75 23.6158 317.653 14.5437 308.581C5.47164 299.509 0.375 287.205 0.375 274.375V48.625C0.375 35.7952 5.47164 23.4908 14.5437 14.4187C23.6158 5.34664 35.9202 0.25 48.75 0.25H274.5C278.777 0.25 282.878 1.94888 285.902 4.9729C288.926 7.99693 290.625 12.0984 290.625 16.375V306.625C290.625 310.902 288.926 315.003 285.902 318.027C282.878 321.051 278.777 322.75 274.5 322.75ZM258.375 290.5V258.25H48.75C44.4734 258.25 40.3719 259.949 37.3479 262.973C34.3239 265.997 32.625 270.098 32.625 274.375C32.625 278.652 34.3239 282.753 37.3479 285.777C40.3719 288.801 44.4734 290.5 48.75 290.5H258.375ZM145.5 129.25C154.053 129.25 162.256 125.852 168.304 119.804C174.352 113.756 177.75 105.553 177.75 97C177.75 88.4468 174.352 80.2439 168.304 74.1958C162.256 68.1478 154.053 64.75 145.5 64.75C136.947 64.75 128.744 68.1478 122.696 74.1958C116.648 80.2439 113.25 88.4468 113.25 97C113.25 105.553 116.648 113.756 122.696 119.804C128.744 125.852 136.947 129.25 145.5 129.25ZM97.125 193.75H193.875C193.875 180.92 188.778 168.616 179.706 159.544C170.634 150.472 158.33 145.375 145.5 145.375C132.67 145.375 120.366 150.472 111.294 159.544C102.222 168.616 97.125 180.92 97.125 193.75Z" fill="black"/>
</svg>
