<svg width="288" height="335" viewBox="0 0 288 335" fill="none" xmlns="http://www.w3.org/2000/svg">
<path d="M26.2228 4.23181e-05C7.12916 4.23181e-05 0.101246 7.06296 0.101246 26.2277V257.392C0.0917544 259.41 0.184652 261.427 0.379579 263.436C0.810996 267.623 0.894497 271.671 4.77725 276.277C5.153 276.738 9.10533 279.697 9.10533 279.697C11.2346 280.744 12.6958 281.512 15.0895 282.489L131.085 331.217C137.111 333.995 139.63 335.07 144 334.986H144.027C148.397 335.07 150.916 333.995 156.942 331.217L272.937 282.475C275.331 281.498 276.792 280.744 278.922 279.683C278.922 279.683 282.874 276.738 283.25 276.291C287.146 271.685 287.216 267.623 287.647 263.45C287.843 261.436 287.936 259.414 287.926 257.392V26.2277C287.926 7.06296 280.884 -0.013916 261.79 -0.013916L26.2228 4.23181e-05ZM212.233 43.4105H221.696C237.534 43.4105 245.188 51.1294 245.188 67.0838V93.3255H226.066V68.2005C226.066 63.0498 223.7 60.663 218.788 60.663H215.517C210.41 60.663 208.044 63.0359 208.044 68.1865V149.284C208.044 154.435 210.41 156.822 215.517 156.822H219.163C224.076 156.822 226.442 154.435 226.442 149.284V120.307H245.55V150.22C245.55 166.188 237.728 174.088 221.891 174.088H212.233C196.396 174.088 188.575 166.188 188.575 150.22V67.2792C188.575 51.3109 196.396 43.4244 212.233 43.4244V43.4105ZM42.6445 44.5271H85.981V62.31H62.1278V98.6436H85.0625V116.44H62.1278V155.161H86.3428V172.958H42.6445V44.5271ZM95.7505 44.5271H126.339C142.177 44.5271 149.998 52.3996 149.998 68.368V102.496C149.998 118.464 142.177 126.365 126.339 126.365H115.22V172.958H95.7366L95.7505 44.5271ZM158.793 44.5271H178.276V172.958H158.793V44.5271ZM115.234 61.7657V109.112H123.236C128.162 109.112 130.514 106.725 130.514 101.575V69.3032C130.514 64.1665 128.149 61.7657 123.236 61.7657H115.234ZM63.1855 203.401C65.9943 203.412 68.779 203.922 71.4102 204.908C73.8974 205.912 76.2016 207.323 78.2294 209.082L71.9391 216.703C70.651 215.59 69.2067 214.673 67.6527 213.981C66.0512 213.322 64.3319 212.999 62.601 213.032C61.2566 213.021 59.9262 213.307 58.7043 213.87C57.525 214.413 56.4654 215.187 55.587 216.145C54.6848 217.136 53.9724 218.286 53.4856 219.537C52.9617 220.865 52.6972 222.282 52.7062 223.71V223.822C52.6956 225.3 52.9599 226.768 53.4856 228.149C53.967 229.43 54.7114 230.595 55.6705 231.569C56.6179 232.524 57.7433 233.283 58.9827 233.802C60.3198 234.353 61.7539 234.628 63.1994 234.612C65.3781 234.7 67.5338 234.136 69.3923 232.993V228.261H61.766V220.374H79.5654V237.892C77.364 239.681 74.9054 241.126 72.2731 242.177C69.2468 243.366 66.0177 243.949 62.768 243.894C59.9068 243.927 57.0649 243.42 54.3902 242.4C51.9223 241.452 49.6628 240.029 47.738 238.213C45.8465 236.421 44.3405 234.259 43.3125 231.862C42.2256 229.304 41.6807 226.547 41.7121 223.766V223.654C41.6863 220.922 42.2216 218.214 43.2847 215.698C44.3053 213.297 45.7798 211.117 47.6267 209.277C49.5143 207.41 51.7578 205.943 54.2232 204.964C56.871 203.912 59.6974 203.386 62.5453 203.415C62.7541 203.412 62.9628 203.412 63.1716 203.415L63.1855 203.401ZM229.671 203.513C232.56 203.505 235.433 203.948 238.188 204.825C240.753 205.676 243.143 206.986 245.243 208.691L239.872 216.312C238.206 215.106 236.379 214.143 234.444 213.451C232.712 212.823 230.886 212.493 229.044 212.474C228.027 212.403 227.014 212.657 226.15 213.2C225.855 213.392 225.611 213.655 225.442 213.964C225.272 214.273 225.18 214.619 225.176 214.972V215.084C225.166 215.496 225.272 215.902 225.482 216.257C225.749 216.65 226.114 216.967 226.539 217.178C227.193 217.522 227.878 217.802 228.585 218.015C229.448 218.294 230.533 218.574 231.869 218.867C233.899 219.302 235.898 219.871 237.854 220.57C239.481 221.137 241.018 221.936 242.418 222.943C243.629 223.815 244.616 224.963 245.299 226.293C245.993 227.761 246.332 229.372 246.287 230.996V231.108C246.321 232.948 245.936 234.772 245.16 236.44C244.41 237.99 243.32 239.35 241.973 240.418C240.513 241.566 238.844 242.419 237.06 242.931C234.979 243.524 232.822 243.811 230.659 243.782C227.298 243.8 223.958 243.253 220.778 242.163C217.731 241.127 214.924 239.484 212.525 237.334L218.509 230.159C222.364 233.272 226.553 234.835 231.034 234.835C232.172 234.902 233.306 234.661 234.319 234.137C234.673 233.944 234.966 233.657 235.168 233.307C235.369 232.958 235.47 232.559 235.46 232.155V232.043C235.465 231.667 235.369 231.295 235.182 230.969C234.923 230.583 234.574 230.267 234.166 230.047C233.534 229.691 232.867 229.401 232.176 229.182C231.11 228.84 230.027 228.551 228.933 228.316C226.996 227.873 225.078 227.346 223.185 226.739C221.549 226.225 219.997 225.472 218.579 224.506C217.302 223.63 216.244 222.469 215.489 221.114C214.686 219.565 214.293 217.834 214.348 216.089V215.977C214.33 214.252 214.681 212.543 215.378 210.966C216.061 209.441 217.079 208.091 218.356 207.016C219.752 205.857 221.359 204.98 223.088 204.434C225.104 203.795 227.209 203.484 229.323 203.513C229.439 203.512 229.555 203.512 229.671 203.513ZM99.4384 203.861H109.765L126.228 243.084H114.747L111.922 236.119H97.003L94.2475 243.07H82.975L99.4384 203.861ZM130.013 204.141H141.342L150.568 219.216L159.795 204.141H171.123V243.084H160.463V220.723L150.568 235.952H150.346L140.506 220.835V243.07H130.013V204.141ZM178.29 204.141H209.394V213.325H188.895V219.216H207.46V227.73H188.895V233.9H209.672V243.084H178.29V204.141ZM104.532 216.661L100.148 227.73H108.832L104.532 216.661ZM88.5973 289.105H200.126L143.206 307.921L88.5973 289.105Z" fill="black"/>
</svg>
