<svg width="387" height="387" viewBox="0 0 387 387" fill="none" xmlns="http://www.w3.org/2000/svg">
<g clip-path="url(#clip0_2393_6)">
<path d="M274.125 64.5C291.96 64.5 305.65 78.0934 315.792 92.7188L319.227 97.8949L322.371 103.055C323.371 104.732 324.323 106.409 325.242 108.021C337.932 130.709 348.978 160.331 356.282 189.598C363.539 218.639 367.554 248.97 364.99 272.819C362.41 296.765 350.074 322.5 322.5 322.5C297.765 322.5 278.27 309.277 262.435 296.361L244.536 281.349C229.653 269.158 213.366 258 193.5 258C173.634 258 157.332 269.158 142.481 281.349L124.582 296.345C108.715 309.278 89.22 322.5 64.5004 322.5C36.9105 322.5 24.5749 296.765 22.011 272.819C19.4633 248.954 23.4623 218.639 30.7185 189.582C38.0232 160.331 49.0688 130.725 61.7592 108.021L64.6294 103.039L67.7738 97.8949L71.2084 92.7188C81.351 78.0934 95.0412 64.5 112.875 64.5C121.099 64.5 129.275 66.4995 137.305 68.8537L146.867 71.7885C148.447 72.2723 150.011 72.7399 151.575 73.1753C165.524 77.1743 179.794 80.625 193.5 80.625C207.207 80.625 221.477 77.1743 235.425 73.1753L249.696 68.8699C257.726 66.4995 265.902 64.5 274.125 64.5ZM137.063 129C126.371 129 116.118 133.247 108.558 140.807C100.998 148.367 96.7504 158.621 96.7504 169.312C96.7504 180.004 100.998 190.258 108.558 197.818C116.118 205.378 126.371 209.625 137.063 209.625C147.754 209.625 158.008 205.378 165.568 197.818C173.128 190.258 177.375 180.004 177.375 169.312C177.375 158.621 173.128 148.367 165.568 140.807C158.008 133.247 147.754 129 137.063 129ZM249.938 129C245.661 129 241.56 130.699 238.536 133.723C235.512 136.747 233.813 140.848 233.813 145.125V153.188H225.75C221.474 153.188 217.372 154.886 214.348 157.91C211.324 160.934 209.625 165.036 209.625 169.312C209.625 173.589 211.324 177.691 214.348 180.715C217.372 183.739 221.474 185.438 225.75 185.438H233.813V193.5C233.813 197.777 235.512 201.878 238.536 204.902C241.56 207.926 245.661 209.625 249.938 209.625C254.215 209.625 258.316 207.926 261.34 204.902C264.364 201.878 266.063 197.777 266.063 193.5V185.438H274.125C278.402 185.438 282.503 183.739 285.528 180.715C288.552 177.691 290.25 173.589 290.25 169.312C290.25 165.036 288.552 160.934 285.528 157.91C282.503 154.886 278.402 153.188 274.125 153.188H266.063V145.125C266.063 140.848 264.364 136.747 261.34 133.723C258.316 130.699 254.215 129 249.938 129ZM137.063 161.25C139.201 161.25 141.252 162.099 142.764 163.611C144.276 165.123 145.125 167.174 145.125 169.312C145.125 171.451 144.276 173.502 142.764 175.014C141.252 176.526 139.201 177.375 137.063 177.375C134.925 177.375 132.874 176.526 131.362 175.014C129.85 173.502 129 171.451 129 169.312C129 167.174 129.85 165.123 131.362 163.611C132.874 162.099 134.925 161.25 137.063 161.25Z" fill="black"/>
</g>
<defs>
<clipPath id="clip0_2393_6">
<rect width="387" height="387" fill="white"/>
</clipPath>
</defs>
</svg>
