<svg width="277" height="198" viewBox="0 0 277 198" fill="none" xmlns="http://www.w3.org/2000/svg">
<path d="M240.242 25.6836C229.895 8.56119 210.927 0 190.233 0H86.7668C66.0735 0 47.1046 8.56119 36.758 25.6836C-2.90417 85.6119 -11.5264 176.36 16.0647 195.195C43.6557 214.03 105.736 131.842 138.5 131.842C171.264 131.842 231.62 214.03 260.935 195.195C288.526 176.36 279.904 85.6119 240.242 25.6836ZM104.011 85.6119H86.7668V102.734H69.5224V85.6119H52.2779V68.4895H69.5224V51.3671H86.7668V68.4895H104.011V85.6119ZM197.131 94.1731C197.131 102.734 190.233 109.583 181.611 109.583C172.989 109.583 166.091 102.734 166.091 94.1731C166.091 85.6119 172.989 78.763 181.611 78.763C190.233 78.763 197.131 85.6119 197.131 94.1731ZM229.895 59.9283C229.895 68.4895 222.998 75.3385 214.375 75.3385C205.753 75.3385 198.855 68.4895 198.855 59.9283C198.855 51.3671 205.753 44.5182 214.375 44.5182C222.998 44.5182 229.895 51.3671 229.895 59.9283Z" fill="#220927"/>
</svg>
