<svg width="26" height="25" viewBox="0 0 26 25" fill="none" xmlns="http://www.w3.org/2000/svg">
<path d="M12.6328 0.5C6.51643 0.499215 1.30253 4.93498 0.323265 10.9724C-0.656004 17.0098 2.88851 22.8662 8.69152 24.7987C9.31652 24.9112 9.54027 24.5275 9.54027 24.1975C9.54027 23.9013 9.53027 23.1162 9.52652 22.0725C6.05777 22.8225 5.32527 20.4 5.32527 20.4C5.09691 19.6462 4.60599 18.9992 3.94152 18.5763C2.81652 17.8025 4.02777 17.82 4.02777 17.82C4.82861 17.9298 5.53345 18.4043 5.93652 19.105C6.27768 19.7253 6.85247 20.1837 7.53315 20.3783C8.21383 20.5729 8.94404 20.4875 9.56152 20.1413C9.61954 19.5088 9.90094 18.9176 10.3553 18.4738C7.58777 18.16 4.67777 17.09 4.67777 12.3113C4.66241 11.0752 5.12139 9.88037 5.96027 8.9725C5.5807 7.89664 5.6254 6.71657 6.08527 5.6725C6.08527 5.6725 7.13152 5.33625 9.51277 6.94875C11.5551 6.38876 13.7105 6.38876 15.7528 6.94875C18.1353 5.335 19.1803 5.6725 19.1803 5.6725C19.6423 6.71607 19.687 7.89697 19.3053 8.9725C20.1472 9.88029 20.6058 11.0783 20.5853 12.3163C20.5853 17.1075 17.6728 18.16 14.8953 18.4688C15.4944 19.0813 15.8017 19.9217 15.739 20.7763C15.739 22.4438 15.724 23.7887 15.724 24.1975C15.724 24.5312 15.9465 24.9188 16.5828 24.7962C22.3834 22.8604 25.9241 17.0037 24.9428 10.9679C23.9615 4.93207 18.7478 0.498601 12.6328 0.5Z" fill="#F1FFFA"/>
</svg>
