<svg width="256" height="256" viewBox="0 0 256 256" fill="none" xmlns="http://www.w3.org/2000/svg">
<path d="M128 0.250005C57.3725 0.250005 0.25 58.8325 0.25 131.285C0.25 188.59 36.02 237.318 85.8425 255.203C92.595 256.845 91.5 252.1 91.5 248.633V225.82C52.81 230.565 51.1675 204.103 48.6125 199.723C43.32 190.598 30.91 188.225 34.7425 183.845C43.5025 179.1 52.6275 184.94 63.03 200.818C70.5125 212.315 85.295 210.308 92.7775 208.483C94.42 201.548 97.8875 195.525 102.633 190.598C62.4825 183.298 45.6925 158.113 45.6925 128.183C45.6925 113.583 50.255 100.26 59.5625 89.4925C53.7225 71.79 60.11 56.6425 61.0225 54.27C77.63 52.81 94.785 66.4975 96.245 67.5925C105.735 65.0375 116.502 63.5775 128.547 63.5775C140.592 63.5775 151.36 65.0375 161.033 67.5925C164.318 65.0375 180.195 53.3575 195.708 54.635C196.62 56.825 202.825 71.79 197.35 89.31C206.658 100.078 211.22 113.583 211.22 128.183C211.22 158.113 194.43 183.298 154.098 190.598C157.572 194.09 160.303 198.249 162.127 202.825C163.952 207.388 164.865 212.315 164.865 217.243V250.275C165.048 252.83 164.865 255.568 169.062 255.568C219.615 238.048 255.933 188.955 255.933 131.285C255.933 58.8325 198.81 0.0675049 128.183 0.0675049L128 0.250005Z" fill="black"/>
</svg>
