<svg width="210" height="203" viewBox="0 0 210 203" fill="none" xmlns="http://www.w3.org/2000/svg">
<path d="M92.1375 90.7578C91.2625 88.1357 90.475 85.5982 89.6 82.9761C88.725 80.354 87.9375 77.9011 87.2375 75.4482C86.5375 73.0798 85.925 70.8807 85.3125 68.8507H85.1375C84.35 72.4878 83.3875 76.1248 82.1625 79.7619C80.85 83.8219 79.5375 88.0511 78.1375 92.2803C76.9125 96.594 75.6 100.569 74.2875 104.122H96.5125C95.9875 102.337 95.2875 100.231 94.5 98.0235C93.7125 95.7482 92.925 93.2952 92.1375 90.7578ZM172.812 2.53735H37.1875C16.625 2.53735 0 18.6082 0 38.4853V164.514C0 184.392 16.625 200.462 37.1875 200.462H172.812C193.375 200.462 210 184.392 210 164.514V38.4853C210 18.6082 193.375 2.53735 172.812 2.53735ZM128.625 142.354H110.329C109.725 142.438 109.112 142.015 108.938 141.423L101.763 121.292H69.2125L62.5625 141.169C62.3875 141.931 61.6875 142.438 60.9 142.362H44.45C43.4875 142.362 43.225 141.846 43.4875 140.84L71.6625 62.4223C71.925 61.5765 72.1875 60.6461 72.5375 59.6311C72.8875 57.8548 73.0625 55.994 73.0625 54.1332C72.975 53.7103 73.325 53.2873 73.7625 53.2028H96.425C97.125 53.2028 97.475 53.4565 97.5625 53.8794L129.5 141C129.762 141.922 129.5 142.354 128.625 142.354ZM158.375 141.085C158.375 142.015 158.034 142.438 157.246 142.438H140.088C139.213 142.438 138.775 141.922 138.775 141.085V75.9557C138.775 75.1098 139.134 74.7715 139.921 74.7715H157.246C158.034 74.7715 158.375 75.1944 158.375 75.9557V141.085ZM156.546 64.7061C155.513 65.7206 154.267 66.5096 152.892 67.0202C151.517 67.5308 150.045 67.7512 148.575 67.6665C145.688 67.7511 142.888 66.6515 140.779 64.7061C138.774 62.5872 137.706 59.7943 137.804 56.9244C137.716 54.0486 138.854 51.3419 140.945 49.3965C143.062 47.4511 145.863 46.4361 148.75 46.4361C152.171 46.4361 154.779 47.4511 156.712 49.3965C158.637 51.4265 159.688 54.1332 159.6 56.9244C159.688 59.8003 158.638 62.5915 156.546 64.7061Z" fill="#220927"/>
</svg>
