<svg width="196" height="196" viewBox="0 0 196 196" fill="none" xmlns="http://www.w3.org/2000/svg">
<path d="M166.6 39.2C169.199 39.2 171.692 38.1675 173.53 36.3296C175.368 34.4918 176.4 31.9991 176.4 29.4C176.4 26.8009 175.368 24.3082 173.53 22.4704C171.692 20.6325 169.199 19.6 166.6 19.6C164.001 19.6 161.508 20.6325 159.67 22.4704C157.832 24.3082 156.8 26.8009 156.8 29.4C156.8 31.9991 157.832 34.4918 159.67 36.3296C161.508 38.1675 164.001 39.2 166.6 39.2ZM166.6 0C174.397 0 181.875 3.09749 187.389 8.61106C192.903 14.1246 196 21.6026 196 29.4V88.2H156.8V49H39.2V88.2H0V29.4C0 21.6026 3.09749 14.1246 8.61106 8.61106C14.1246 3.09749 21.6026 0 29.4 0H166.6ZM156.8 159.25C156.8 162.974 154.742 166.208 151.606 167.874L103.586 194.236C101.92 195.412 100.058 196 98 196C95.942 196 93.982 195.412 92.414 194.236L44.394 167.874C42.8229 167.048 41.508 165.808 40.5923 164.288C39.6766 162.767 39.1951 161.025 39.2 159.25V107.8C39.2 104.076 41.258 100.842 44.394 99.176L92.414 75.264C93.982 74.088 95.942 73.5 98 73.5C100.058 73.5 101.92 74.088 103.586 75.264L151.606 99.176C154.742 100.842 156.8 104.076 156.8 107.8V159.25ZM98 94.57L68.992 107.8L98 123.48L127.008 107.8L98 94.57ZM58.8 153.468L88.2 169.442V140.434L58.8 124.558V153.468V153.468ZM137.2 153.468V124.558L107.8 140.434V169.442L137.2 153.468V153.468Z" fill="#220927"/>
</svg>
