<svg width="33" height="33" viewBox="0 0 33 33" fill="none" xmlns="http://www.w3.org/2000/svg">
<path d="M16.5027 28.9313C13.1202 28.9313 12.7215 28.9135 11.4015 28.8557C10.3721 28.8219 9.35609 28.6126 8.39712 28.237C6.73792 27.5913 5.42594 26.2788 4.78087 24.6193C4.41967 23.6569 4.22485 22.64 4.20475 21.6122C4.12775 20.295 4.12775 19.8632 4.12775 16.5068C4.12775 13.1147 4.14562 12.7187 4.20475 11.4056C4.22529 10.3792 4.4201 9.36372 4.78087 8.40259C5.42524 6.74094 6.73935 5.42732 8.40125 4.78359C9.36188 4.42086 10.3776 4.22553 11.4042 4.20609C12.7174 4.13184 13.1491 4.13184 16.5027 4.13184C19.9127 4.13184 20.3046 4.14971 21.604 4.20609C22.6333 4.2257 23.6517 4.42101 24.6152 4.78359C26.2767 5.42805 27.5905 6.74141 28.2356 8.40259C28.6029 9.37773 28.7988 10.4091 28.8145 11.451C28.8915 12.7682 28.8915 13.1986 28.8915 16.5536C28.8915 19.9086 28.8722 20.3486 28.8145 21.6507C28.794 22.6795 28.5987 23.6973 28.237 24.6606C27.5903 26.3212 26.2763 27.6341 24.6152 28.2796C23.6531 28.6401 22.6368 28.8349 21.6095 28.8557C20.2964 28.9313 19.866 28.9313 16.5027 28.9313ZM16.456 6.30846C13.0927 6.30846 12.7435 6.32496 11.4304 6.38409C10.6466 6.39447 9.87041 6.5391 9.1355 6.81171C8.05028 7.22697 7.19156 8.0822 6.77187 9.16571C6.49716 9.90862 6.35251 10.6933 6.34425 11.4853C6.27137 12.8177 6.27137 13.167 6.27137 16.5068C6.27137 19.8068 6.28375 20.207 6.34425 21.5311C6.35656 22.3151 6.50113 23.0914 6.77187 23.8273C7.19218 24.9101 8.05075 25.7647 9.1355 26.18C9.8699 26.4544 10.6464 26.5991 11.4304 26.6076C12.7614 26.6846 13.112 26.6846 16.456 26.6846C19.8289 26.6846 20.1781 26.6681 21.4802 26.6076C22.2645 26.598 23.0413 26.4534 23.7765 26.18C24.8551 25.7611 25.7083 24.9085 26.1277 23.8301C26.4019 23.0866 26.5466 22.3015 26.5554 21.5091H26.5705C26.6296 20.1946 26.6296 19.844 26.6296 16.4848C26.6296 13.1257 26.6145 12.7723 26.5554 11.4592C26.543 10.6761 26.3985 9.90066 26.1277 9.16571C25.7092 8.08575 24.856 7.23149 23.7765 6.81171C23.0415 6.53773 22.2646 6.39305 21.4802 6.38409C20.1506 6.30846 19.8027 6.30846 16.456 6.30846ZM16.5027 22.858C13.9315 22.8596 11.6124 21.3121 10.6272 18.9371C9.64192 16.5621 10.1845 13.8274 12.0019 12.0085C13.8192 10.1895 16.5534 9.64458 18.9293 10.6278C21.3051 11.611 22.8547 13.9287 22.8552 16.5C22.8515 20.0077 20.0105 22.8511 16.5027 22.858ZM16.5027 12.3722C14.2246 12.3722 12.3777 14.219 12.3777 16.4972C12.3777 18.7754 14.2246 20.6222 16.5027 20.6222C18.7809 20.6222 20.6277 18.7754 20.6277 16.4972C20.6225 14.2212 18.7787 12.3775 16.5027 12.3722ZM23.1027 11.3918C22.2852 11.3888 21.6245 10.7244 21.626 9.90685C21.6275 9.0893 22.2907 8.42735 23.1082 8.42735C23.9258 8.42735 24.589 9.08929 24.5905 9.90684C24.5909 10.3013 24.4341 10.6796 24.155 10.9583C23.8758 11.2369 23.4972 11.3929 23.1027 11.3918Z" fill="#F1FFFA"/>
</svg>
