<svg width="33" height="33" viewBox="0 0 33 33" fill="none" xmlns="http://www.w3.org/2000/svg">
<path d="M17.875 28.875H12.375V12.375H17.875V15.125C19.0474 13.6335 20.8252 12.7443 22.7219 12.7009C26.1327 12.7198 28.8849 15.4954 28.875 18.9062V28.875H23.375V19.5938C23.155 18.0574 21.8374 16.9174 20.2854 16.9207C19.6065 16.9422 18.9657 17.2394 18.5109 17.7439C18.056 18.2483 17.8264 18.9163 17.875 19.5938V28.875ZM9.625 28.875H4.125V12.375H9.625V28.875ZM6.875 9.625C5.35622 9.625 4.125 8.39378 4.125 6.875C4.125 5.35622 5.35622 4.125 6.875 4.125C8.39378 4.125 9.625 5.35622 9.625 6.875C9.625 7.60435 9.33527 8.30382 8.81954 8.81954C8.30382 9.33527 7.60435 9.625 6.875 9.625Z" fill="#F1FFFA"/>
</svg>
