<svg width="257" height="267" viewBox="0 0 257 267" fill="none" xmlns="http://www.w3.org/2000/svg">
<path d="M44.7277 46.9712C53.0253 53.706 56.1228 53.1945 71.6951 52.1572L218.496 43.3481C221.621 43.3481 219.021 40.2222 217.984 39.7107L193.603 22.0924C188.928 18.4693 182.705 14.3062 170.784 15.3435L28.6296 25.7155C23.4578 26.227 22.4206 28.8272 24.4808 30.9016L44.7277 46.9712ZM53.5368 81.1849V235.629C53.5368 243.941 57.6857 247.039 67.0347 246.527L228.356 237.192C237.691 236.681 238.728 230.969 238.728 224.234V70.8128C238.728 64.078 236.142 60.4407 230.431 60.9664L61.8345 70.8128C55.6113 71.3243 53.5368 74.4359 53.5368 81.1849ZM212.812 89.4683C213.835 94.1287 212.812 98.8032 208.124 99.3289L200.352 100.878V214.899C193.603 218.537 187.379 220.611 182.193 220.611C173.896 220.611 171.821 218.011 165.598 210.239L114.746 130.417V207.653L130.844 211.276C130.844 211.276 130.844 220.611 117.858 220.611L82.0672 222.686C81.03 220.611 82.0672 215.439 85.7045 214.388L95.0394 211.802V109.687L82.0672 108.65C81.03 103.975 83.6301 97.2403 90.8905 96.7146L129.281 94.1429L182.193 174.988V103.478L168.695 101.929C167.672 96.2173 171.821 92.0827 177.007 91.557L212.812 89.4825V89.4683ZM16.6946 11.7203L164.547 0.836748C182.691 -0.726168 187.365 0.325247 198.789 8.60871L245.975 41.7852C253.761 47.4827 256.361 49.0314 256.361 55.2547V237.192C256.361 248.602 252.212 255.336 237.691 256.374L65.9833 266.746C55.0855 267.257 49.8995 265.708 44.1878 258.448L9.43417 213.351C3.21092 205.053 0.625 198.844 0.625 191.569V29.8644C0.625 20.5295 4.75963 12.7575 16.6946 11.7203Z" fill="black"/>
</svg>
