<svg width="305" height="281" viewBox="0 0 305 281" fill="none" xmlns="http://www.w3.org/2000/svg">
<path d="M47.542 99.2615C49.6262 93.8604 52.0154 88.6627 54.8239 83.77C52.117 81.2792 45.3562 75.9798 45.7756 75.5604C81.0285 33.3434 126.995 20.6605 167.648 28.0313C175.972 29.175 184.296 31.1575 192.506 34.1694C250.748 55.799 280.168 119.951 258.335 177.57C256.154 183.204 253.545 188.664 250.532 193.9C253.76 196.696 260.826 201.907 260.419 202.326C221.316 248.597 169.212 259.31 125.851 246.424C121.636 245.366 117.472 244.115 113.371 242.675C55.2433 221.045 25.7091 156.881 47.542 99.2615ZM246.173 0.479614C238.79 7.54545 229.945 16.0727 225.586 19.9234C218.554 15.9445 211.215 12.5362 203.638 9.73128C137.492 -14.8085 67.8245 12.9592 29.4454 64.6313C9.37891 94.2925 -2.47797 130.791 0.43224 168.331C0.43224 168.331 0.546611 238.939 65.7531 280.546C71.0524 273.251 77.8006 263.898 82.2739 257.861C89.6614 262.125 97.384 265.781 105.365 268.791C180.242 296.546 263.228 261.089 290.36 189.643C290.36 189.643 310.223 146.079 303.678 98.4482C303.678 98.4482 298.582 34.1694 246.173 0.479614Z" fill="black"/>
</svg>
