<svg width="203" height="199" viewBox="0 0 203 199" fill="none" xmlns="http://www.w3.org/2000/svg">
<path d="M83.3146 69.2191C80.185 67.9504 76.8017 67.4429 73.3337 67.5275C71.1346 67.5275 69.1892 67.5275 67.5821 67.6121C65.8904 67.5275 64.7062 67.6121 64.1142 67.6966V96.1167C65.2983 96.2012 66.3979 96.2858 67.4129 96.2858H71.8958C75.1946 96.2858 78.4933 95.7783 81.6229 94.7633C84.3296 94.0021 86.6979 92.395 88.5587 90.2804C90.335 88.1658 91.1808 85.29 91.1808 81.5683C91.2654 78.9462 90.5887 76.3241 89.2354 74.0404C87.8251 71.8443 85.7509 70.1553 83.3146 69.2191ZM167.052 0.537476H35.9479C16.0708 0.537476 0 16.6083 0 36.4854V162.506C0 182.383 16.0708 198.454 35.9479 198.454H167.052C186.929 198.454 203 182.383 203 162.506V36.4854C203 16.6083 186.929 0.537476 167.052 0.537476ZM104.537 99.0771C101.162 103.814 96.425 107.366 90.9271 109.396C85.1754 111.511 78.8317 112.272 71.8958 112.272C69.8658 112.272 68.5125 112.272 67.6667 112.187C66.8208 112.103 65.6367 112.103 64.0296 112.103V139.246C64.1142 139.838 63.6912 140.354 63.0992 140.438H46.69C46.0133 140.438 45.675 140.092 45.675 139.33V52.3025C45.675 51.7104 45.9287 51.3721 46.5208 51.3721C47.9587 51.3721 49.3121 51.3721 51.2575 51.2875C53.2875 51.2029 55.4021 51.2029 57.6858 51.1183C59.9696 51.0337 62.4225 51.0337 65.0446 50.9491C67.6667 50.8646 70.2042 50.8646 72.7417 50.8646C79.6775 50.8646 85.4292 51.7104 90.1658 53.4866C94.395 54.9246 98.2858 57.2929 101.5 60.4225C104.207 63.1291 106.321 66.4279 107.675 70.065C108.935 73.6175 109.612 77.2546 109.612 81.0608C109.62 88.335 107.928 94.3404 104.537 99.0771ZM164.515 131.98C162.146 135.363 158.839 137.977 155.041 139.516C150.897 141.284 145.822 142.206 139.723 142.206C135.841 142.206 132.026 141.876 128.228 141.115C125.268 140.599 122.307 139.677 119.601 138.408C119.009 138.078 118.577 137.486 118.662 136.81V122.092C118.662 121.847 118.755 121.5 119.009 121.331C119.254 121.162 119.516 121.246 119.77 121.416C123.069 123.361 126.537 124.723 130.258 125.56C133.464 126.406 136.847 126.829 140.239 126.829C143.453 126.829 145.737 126.397 147.26 125.636C148.613 125.044 149.543 123.606 149.543 122.084C149.543 120.891 148.867 119.8 147.513 118.7C146.16 117.609 143.377 116.341 139.233 114.717C134.919 113.194 130.952 111.164 127.222 108.635C124.575 106.739 122.378 104.285 120.785 101.445C119.441 98.7692 118.775 95.8034 118.848 92.8094C118.848 89.1723 119.863 85.7044 121.732 82.5749C123.847 79.1915 126.968 76.4849 130.605 74.7932C134.572 72.7716 139.562 71.8412 145.568 71.8412C149.036 71.8412 152.588 72.095 156.056 72.6025C158.594 72.9408 161.047 73.6175 163.33 74.5479C163.66 74.6325 164.007 74.9708 164.176 75.3092C164.261 75.6475 164.345 75.9858 164.345 76.3242V90.1112C164.345 90.4496 164.176 90.7879 163.922 90.9571C163.161 91.1262 162.738 91.1262 162.4 90.9571C159.862 89.6037 157.156 88.6733 154.28 88.0812C151.15 87.4046 148.021 86.9817 144.807 86.9817C143.115 86.8971 141.339 87.1508 139.723 87.5737C138.632 87.8275 137.693 88.4196 137.101 89.2654C136.678 89.9421 136.424 90.7879 136.424 91.5491C136.424 92.3104 136.763 93.0716 137.279 93.7483C138.04 94.6787 139.047 95.44 140.155 96.0321C142.092 97.0471 144.13 97.9775 146.152 98.8233C150.727 100.346 155.126 102.46 159.186 104.998C161.977 106.766 164.261 109.142 165.859 112.018C167.213 114.708 167.889 117.685 167.805 120.722C167.898 124.706 166.714 128.673 164.515 131.98Z" fill="#220927"/>
</svg>
