<svg width="320" height="227" viewBox="0 0 320 227" fill="none" xmlns="http://www.w3.org/2000/svg">
<path d="M63.6 32.75H11.597C5.62148 32.75 -0.35402 37.918 0.45348 46.316L25.6475 207.654C25.6475 207.654 55.525 88.7904 61.339 60.2049C63.1155 51.6454 71.1905 48.9 77.166 48.9H160.5C160.5 48.9 149.195 15.308 148.064 11.5935C146.126 4.48745 142.573 0.449951 135.467 0.449951H82.011C76.197 0.449951 70.706 4.16445 69.091 10.786C67.6375 17.246 63.6 32.75 63.6 32.75ZM142.412 32.75H77.812C77.812 32.75 84.595 16.6 91.8625 16.6H126.262C134.014 16.6 142.412 32.75 142.412 32.75ZM42.1205 214.437C37.114 222.028 29.8465 226.55 21.7715 226.55H275.811C284.532 226.55 290.669 221.543 292.445 213.145C299.551 177.777 319.577 76.8394 319.577 76.8394C320.708 68.7644 314.732 65.0499 309.564 65.0499H257.4V41.3095C257.4 38.7255 253.201 32.75 246.741 32.75H186.017C177.619 32.75 171.966 42.1169 171.966 42.1169L160.5 65.0499H89.2785C84.1105 65.0499 79.104 68.1184 78.135 73.1249C78.135 73.1249 52.4565 181.33 50.357 191.504C49.2265 197.48 46.804 207.493 42.1205 214.437ZM247.387 65.0499H176.65C176.65 65.0499 186.017 48.9 194.899 48.9H231.883C243.349 48.9 247.387 65.0499 247.387 65.0499Z" fill="black"/>
</svg>
