<svg width="25" height="25" viewBox="0 0 25 25" fill="none" xmlns="http://www.w3.org/2000/svg">
<path d="M11.7711 0C8.76142 0.171357 5.91544 1.42599 3.75881 3.53215C1.60218 5.63831 0.280609 8.45371 0.0381927 11.4583C-0.0127309 12.1518 -0.0127309 12.8482 0.0381927 13.5417C0.28136 16.5508 1.60694 19.3699 3.76938 21.4767C5.93182 23.5835 8.78457 24.8352 11.7992 25H13.2014C16.2733 24.8143 19.1698 23.5062 21.3402 21.3244C23.5106 19.1427 24.8034 16.2394 24.9728 13.1667C25.0091 12.5769 25.0091 11.9856 24.9728 11.3958C24.7011 8.40151 23.3635 5.60419 21.2034 3.51278C19.0433 1.42137 16.2041 0.174853 13.2024 0L11.7711 0ZM15.6254 6.78125L18.7402 8.59375C18.7402 8.59375 12.4232 11.9687 12.4024 11.9687C12.3815 11.9687 6.05412 8.61458 6.04162 8.60417L9.16053 6.76042L12.2773 4.92708L15.6254 6.78125ZM8.87926 12.1208L11.4586 13.5417V19.7083L8.82613 18.25L6.26351 16.7604V10.7604L8.87926 12.1208ZM18.735 13.7583V16.8042L16.1463 18.3062L13.542 19.8094V13.5344L16.1348 12.1333L18.7391 10.7219L18.735 13.7583Z" fill="#F1FFFA"/>
</svg>
