<svg width="37" height="37" viewBox="0 0 37 37" fill="none" xmlns="http://www.w3.org/2000/svg">
<g clip-path="url(#clip0_2139_236)">
<path d="M17.4208 0C12.9667 0.253608 8.7549 2.11046 5.56325 5.22758C2.3716 8.3447 0.415768 12.5115 0.0570107 16.9583C-0.0183525 17.9847 -0.0183525 19.0153 0.0570107 20.0417C0.41688 24.4952 2.37863 28.6675 5.57889 31.7855C8.77914 34.9036 13.001 36.7561 17.4624 37H19.5375C24.0837 36.7252 28.3704 34.7892 31.5824 31.5602C34.7944 28.3311 36.7076 24.0343 36.9583 19.4867C37.0121 18.6139 37.0121 17.7386 36.9583 16.8658C36.5563 12.4342 34.5768 8.2942 31.3799 5.19892C28.1831 2.10363 23.9813 0.258783 19.5391 0L17.4208 0ZM23.125 10.0363L27.7346 12.7188C27.7346 12.7188 18.3859 17.7137 18.3551 17.7137C18.3242 17.7137 8.96014 12.7496 8.94164 12.7342L13.5574 10.0054L18.1701 7.29208L23.125 10.0363ZM13.1411 17.9388L16.9583 20.0417V29.1683L13.0625 27.01L9.27001 24.8054V15.9254L13.1411 17.9388ZM27.7268 20.3623V24.8702L23.8958 27.0932L20.0416 29.3179V20.0309L23.8788 17.9573L27.733 15.8684L27.7268 20.3623Z" fill="#FF3E45"/>
</g>
<defs>
<clipPath id="clip0_2139_236">
<rect width="37" height="37" rx="18.5" fill="white"/>
</clipPath>
</defs>
</svg>
