<svg width="325" height="325" viewBox="0 0 325 325" fill="none" xmlns="http://www.w3.org/2000/svg">
<path d="M162.5 0C72.7594 0 0 72.7594 0 162.5C0 252.241 72.7594 325 162.5 325C252.241 325 325 252.241 325 162.5C325 72.7594 252.241 0 162.5 0ZM162.5 24.9979C238.266 25.0927 299.65 86.5448 299.65 162.324C299.65 238.171 238.171 299.65 162.324 299.65C86.4771 299.65 24.9979 238.171 24.9979 162.324C24.9979 124.407 40.3677 90.0792 65.2167 65.2302C77.9688 52.459 93.1175 42.3319 109.793 35.4301C126.469 28.5283 144.344 24.9877 162.392 25.0115H162.486L162.5 24.9979ZM162.5 62.5083C103.025 72.9896 49.9958 127.833 49.9958 187.498C79.0969 136.121 98.5292 132.424 103.905 132.424C109.281 132.424 112.111 135.214 112.111 141.402V217.967C112.111 227.486 93.6135 225.929 87.4927 224.995C110.107 258.646 162.5 262.505 162.5 262.505L187.498 237.507L212.496 250.006C251.956 231.942 274.991 193.267 274.991 187.511C265.474 199.362 252.574 208.034 238.008 212.374L237.48 212.509C234.163 212.509 224.981 210.803 224.981 206.253V115.619C224.981 107.751 243.154 83.7417 249.979 74.9938C204.858 86.8156 191.777 107.413 191.777 107.413C191.777 107.413 188.351 99.9917 174.985 99.9917C181.77 106.397 186.333 115.077 187.471 124.8L187.484 124.99V201.554C180.105 206.769 171.758 210.457 162.933 212.401L162.473 212.482C153.806 212.482 149.581 208.961 149.581 202.326C149.581 195.691 149.974 112.491 149.974 112.491C149.974 112.491 137.475 117.081 137.475 91.3927C137.475 78.5417 162.473 62.4812 162.473 62.4812L162.5 62.5083Z" fill="black"/>
</svg>
