<svg width="37" height="26" viewBox="0 0 37 26" fill="none" xmlns="http://www.w3.org/2000/svg">
<path d="M36.2252 4.20338C36.0158 3.45613 35.6077 2.77961 35.0445 2.24573C34.4653 1.69543 33.7555 1.30179 32.982 1.10196C30.0872 0.338943 18.4892 0.338943 18.4892 0.338943C13.6542 0.283932 8.8203 0.525882 4.01491 1.06343C3.24139 1.27802 2.5329 1.68045 1.95244 2.23494C1.3821 2.7837 0.968988 3.4604 0.753183 4.20184C0.23478 6.99457 -0.017096 9.83024 0.000951363 12.6706C-0.0175461 15.5084 0.233712 18.3432 0.753183 21.1394C0.964363 21.8778 1.37593 22.5514 1.94781 23.0955C2.5197 23.6396 3.23185 24.0327 4.01491 24.2408C6.94831 25.0023 18.4892 25.0023 18.4892 25.0023C23.3304 25.0574 28.1704 24.8154 32.982 24.2778C33.7555 24.078 34.4653 23.6843 35.0445 23.134C35.6148 22.5899 36.0202 21.9132 36.2237 21.1764C36.7556 18.3847 37.0143 15.5479 36.996 12.7061C37.036 9.85222 36.7777 7.002 36.2252 4.20184V4.20338ZM14.802 17.9486V7.3942L24.4516 12.6722L14.802 17.9486Z" fill="#F1FFFA"/>
</svg>
