<svg width="37" height="37" viewBox="0 0 37 37" fill="none" xmlns="http://www.w3.org/2000/svg">
<g clip-path="url(#clip0_2139_238)">
<path d="M21.5891 18.1782L17.2609 16.1586C16.8832 15.9832 16.5729 16.1798 16.5729 16.598V20.402C16.5729 20.8202 16.8832 21.0168 17.2609 20.8414L21.5872 18.8218C21.9668 18.6445 21.9668 18.3555 21.5891 18.1782ZM18.5 0C8.2826 0 0 8.2826 0 18.5C0 28.7174 8.2826 37 18.5 37C28.7174 37 37 28.7174 37 18.5C37 8.2826 28.7174 0 18.5 0ZM18.5 26.0156C9.03031 26.0156 8.86458 25.1619 8.86458 18.5C8.86458 11.8381 9.03031 10.9844 18.5 10.9844C27.9697 10.9844 28.1354 11.8381 28.1354 18.5C28.1354 25.1619 27.9697 26.0156 18.5 26.0156Z" fill="#FF3E45"/>
</g>
<defs>
<clipPath id="clip0_2139_238">
<rect width="37" height="37" rx="18.5" fill="white"/>
</clipPath>
</defs>
</svg>
